<svg xmlns="http://www.w3.org/2000/svg" viewBox="0 0 182.76 189.55"><title>Ресурс 21</title><g id="Слой_2" data-name="Слой 2"><g id="Layer_1" data-name="Layer 1"><path d="M94.4,133.61a10.38,10.38,0,0,1-1.21,0c-7.83-.93-14.33.52-21.54,5.2-17.21,11.21-39.44-1.09-40.9-21.6a8,8,0,0,0-3.07-6.12C13.91,99.11,5.43,84.41,5.81,65.67c.36-17.8,8.91-31.65,22-42.9C43.86,9,62.95,2.37,83.65.51c23.13-2.07,45.2,2.06,65.41,14C163.94,23.22,175.53,35,180.43,52c5.89,20.35.35,38.12-13.82,53.38-11.84,12.74-26.72,20.51-43.41,24.54-9.38,2.26-19.1,3.11-28.66,4.6ZM93.9,5.88C87.61,6.58,81.28,7,75.05,8c-17.58,2.85-33.4,9.76-46.29,22.22C15.05,43.49,8.6,59.41,13.36,78.62c3,12,10.38,21.18,19.72,28.87a9.66,9.66,0,0,1,3.9,8.24c0,9.31,4.76,15.82,13.14,19.54a19.48,19.48,0,0,0,22.95-4.89c3.1-3.48,6.14-3.78,10.28-3.37,24.71,2.47,47.82-2.26,68.36-16.68C163.61,102,172.6,91,175.62,76.44c4-19.33-3.35-35-17.54-47.65C139.87,12.56,117.89,6.51,93.9,5.88Z"/><path d="M37.18,175.87c-8.34.21-14.33-5.33-14.55-13.45S28.29,147.83,36,147.55a14.32,14.32,0,0,1,14.84,14.36A13.56,13.56,0,0,1,37.18,175.87ZM28.5,162a8.43,8.43,0,0,0,8.4,8.08,8.54,8.54,0,0,0,8-8.13c0-4.25-4.05-8.36-8.26-8.29A8.32,8.32,0,0,0,28.5,162Z"/><path d="M19.32,180a9.53,9.53,0,0,1-9.48,9.53A9.62,9.62,0,0,1,0,179.89a9.72,9.72,0,0,1,9.83-9.71C15.35,170.13,19.38,174.31,19.32,180ZM9.59,174.7c-1.62,2.46-3.42,4-3.22,5.21s2.26,2.39,3.5,3.56c1.13-1.26,3-2.45,3.15-3.8S11.31,177,9.59,174.7Z"/></g></g></svg>