<svg id="Layer_1" data-name="Layer 1" xmlns="http://www.w3.org/2000/svg" viewBox="0 0 448 512"><defs><style>.cls-1{fill:none;}</style></defs><title>layers</title><path class="cls-1" d="M385.62,87.89H157.38a4.5,4.5,0,0,0-4.49,4.49V136H308.11A35.9,35.9,0,0,1,344,171.89V326.11h41.62a4.5,4.5,0,0,0,4.49-4.49V92.38A4.5,4.5,0,0,0,385.62,87.89Z"/><path d="M402.11,40H138.89A35.9,35.9,0,0,0,103,75.89V136H44.89A35.9,35.9,0,0,0,9,171.89V435.11A35.9,35.9,0,0,0,44.89,471H308.11A35.9,35.9,0,0,0,344,435.11V375h58.11A35.9,35.9,0,0,0,438,339.11V75.89A35.9,35.9,0,0,0,402.11,40Zm-106,377.62a4.5,4.5,0,0,1-4.49,4.49H63.38a4.5,4.5,0,0,1-4.49-4.49V188.38a4.5,4.5,0,0,1,4.49-4.49H291.62a4.5,4.5,0,0,1,4.49,4.49Zm94-96a4.5,4.5,0,0,1-4.49,4.49H344V171.89A35.9,35.9,0,0,0,308.11,136H152.89V92.38a4.5,4.5,0,0,1,4.49-4.49H385.62a4.5,4.5,0,0,1,4.49,4.49Z"/></svg>