<?xml version="1.0" encoding="UTF-8"?>
<svg width="106px" height="43px" viewBox="0 0 106 43" version="1.1" xmlns="http://www.w3.org/2000/svg" xmlns:xlink="http://www.w3.org/1999/xlink">
    <!-- Generator: Sketch 52.2 (67145) - http://www.bohemiancoding.com/sketch -->
    <title>Group</title>
    <desc>Created with Sketch.</desc>
    <defs>
        <linearGradient x1="75.5078408%" y1="94.1154162%" x2="9.62783746%" y2="5.88458375%" id="linearGradient-1">
            <stop stop-color="#9A6CFF" offset="2.74114884%"></stop>
            <stop stop-color="#BF38FF" offset="100%"></stop>
        </linearGradient>
    </defs>
    <g id="Page-1" stroke="none" stroke-width="1" fill="none" fill-rule="evenodd">
        <g id="main-for-comics-[actual]-copy-2" transform="translate(-205.000000, -67.000000)">
            <g id="Group" transform="translate(200.000000, 58.000000)">
                <g id="Group-3" transform="translate(63.000000, 17.000000)" fill="#232537">
                    <path d="M1.46,20.3394886 L1.46,6.17948864 L4.9,6.17948864 L4.9,20.3394886 L1.46,20.3394886 Z M14.18,20.3394886 L14.18,14.8994886 C14.18,14.6194872 14.1566669,14.3528232 14.11,14.0994886 C14.0633331,13.846154 13.9866672,13.6228229 13.88,13.4294886 C13.7733328,13.2361543 13.6233343,13.0828225 13.43,12.9694886 C13.2366657,12.8561547 12.9933348,12.7994886 12.7,12.7994886 C12.4066652,12.7994886 12.1500011,12.8561547 11.93,12.9694886 C11.7099989,13.0828225 11.5266674,13.2394876 11.38,13.4394886 C11.2333326,13.6394896 11.1233337,13.8694873 11.05,14.1294886 C10.9766663,14.3894899 10.94,14.6594872 10.94,14.9394886 L10.94,20.3394886 L7.64,20.3394886 L7.64,10.3794886 L10.82,10.3794886 L10.82,11.7594886 L10.86,11.7594886 C10.9800006,11.5461542 11.1366657,11.3361563 11.33,11.1294886 C11.5233343,10.9228209 11.7499987,10.746156 12.01,10.5994886 C12.2700013,10.4528212 12.5533318,10.3328224 12.86,10.2394886 C13.1666682,10.1461548 13.4933316,10.0994886 13.84,10.0994886 C14.50667,10.0994886 15.073331,10.2194874 15.54,10.4594886 C16.006669,10.6994898 16.3833319,11.0094867 16.67,11.3894886 C16.9566681,11.7694905 17.1633327,12.2061528 17.29,12.6994886 C17.4166673,13.1928244 17.48,13.6861528 17.48,14.1794886 L17.48,20.3394886 L14.18,20.3394886 Z M30.66,20.3394886 L26.6,20.3394886 L23.34,15.5594886 L23.28,15.5594886 L23.28,20.3394886 L19.98,20.3394886 L19.98,5.21948864 L23.28,5.21948864 L23.28,14.4194886 L23.34,14.4194886 L26.52,10.3794886 L30.5,10.3794886 L26.66,14.8794886 L30.66,20.3394886 Z M35.42,7.19948864 C35.42,7.45282324 35.3700005,7.68948754 35.27,7.90948864 C35.1699995,8.12948974 35.0366675,8.31948784 34.87,8.47948864 C34.7033325,8.63948944 34.5033345,8.76615484 34.27,8.85948864 C34.0366655,8.95282244 33.7933346,8.99948864 33.54,8.99948864 C33.006664,8.99948864 32.5600018,8.82282374 32.2,8.46948864 C31.8399982,8.11615354 31.66,7.69282444 31.66,7.19948864 C31.66,6.95948744 31.7066662,6.72948974 31.8,6.50948864 C31.8933338,6.28948754 32.0266658,6.09948944 32.2,5.93948864 C32.3733342,5.77948784 32.5733322,5.64948914 32.8,5.54948864 C33.0266678,5.44948814 33.273332,5.39948864 33.54,5.39948864 C33.7933346,5.39948864 34.0366655,5.44615484 34.27,5.53948864 C34.5033345,5.63282244 34.7033325,5.75948784 34.87,5.91948864 C35.0366675,6.07948944 35.1699995,6.26948754 35.27,6.48948864 C35.3700005,6.70948974 35.42,6.94615404 35.42,7.19948864 Z M31.9,20.3394886 L31.9,10.3794886 L35.18,10.3794886 L35.18,20.3394886 L31.9,20.3394886 Z M44.64,14.2194886 C44.64,13.699486 44.4766683,13.2528238 44.15,12.8794886 C43.8233317,12.5061534 43.3333366,12.3194886 42.68,12.3194886 C42.3599984,12.3194886 42.066668,12.3694881 41.8,12.4694886 C41.533332,12.5694891 41.300001,12.7061544 41.1,12.8794886 C40.899999,13.0528228 40.7400006,13.2561541 40.62,13.4894886 C40.4999994,13.7228231 40.4333334,13.966154 40.42,14.2194886 L44.64,14.2194886 Z M47.66,15.4794886 L47.66,15.8794886 C47.66,16.0128226 47.6533334,16.139488 47.64,16.2594886 L40.42,16.2594886 C40.4466668,16.53949 40.5299993,16.7928208 40.67,17.0194886 C40.8100007,17.2461564 40.9899989,17.4428211 41.21,17.6094886 C41.4300011,17.7761561 41.6766653,17.9061548 41.95,17.9994886 C42.2233347,18.0928224 42.5066652,18.1394886 42.8,18.1394886 C43.3200026,18.1394886 43.7599982,18.0428229 44.12,17.8494886 C44.4800018,17.6561543 44.7733322,17.4061568 45,17.0994886 L47.28,18.5394886 C46.813331,19.219492 46.1966705,19.7428201 45.43,20.1094886 C44.6633295,20.4761571 43.7733384,20.6594886 42.76,20.6594886 C42.0133296,20.6594886 41.30667,20.5428231 40.64,20.3094886 C39.97333,20.0761541 39.3900025,19.7361575 38.89,19.2894886 C38.3899975,18.8428197 37.9966681,18.2928252 37.71,17.6394886 C37.4233319,16.986152 37.28,16.2394928 37.28,15.3994886 C37.28,14.5861512 37.4199986,13.8494919 37.7,13.1894886 C37.9800014,12.5294853 38.3599976,11.9694909 38.84,11.5094886 C39.3200024,11.0494863 39.8866634,10.6928232 40.54,10.4394886 C41.1933366,10.186154 41.8999962,10.0594886 42.66,10.0594886 C43.393337,10.0594886 44.0666636,10.1828207 44.68,10.4294886 C45.2933364,10.6761565 45.8199978,11.0328196 46.26,11.4994886 C46.7000022,11.9661576 47.0433321,12.5328186 47.29,13.1994886 C47.5366679,13.8661586 47.66,14.626151 47.66,15.4794886 Z" id="Inkie"></path>
                </g>
                <g id="Group-3-Copy-14" transform="translate(27.942028, 30.606788) rotate(340.000000) translate(-27.942028, -30.606788) translate(6.942028, 6.606788)">
                    <path d="M8.60962812,2.77365948 C14.8278505,-0.772021624 23.6487205,1.43284213 28.5675361,4.15093283 C33.4863517,6.86902354 38.3166831,10.6321741 40.3025522,16.7290466 C42.2884212,22.8259192 40.3634339,30.7187161 37.948551,36.0621205 C35.5336681,41.4055249 31.0555767,48.1544897 24.5992933,47.1202112 C20.1483641,46.4071848 19.5348349,42.845124 16.7957906,40.4938852 C9.04546236,33.8408816 5.52645292,40.6696579 1.40409804,35.1473687 C-1.12639661,31.7575288 1.5243224,27.7083375 2.17768539,24.8435462 C2.79034795,22.1572134 2.70439798,19.3679948 2.33835165,15.7168349 C1.59401395,8.29237601 5.09078688,4.78013145 8.60962812,2.77365948 Z" id="Path" fill="url(#linearGradient-1)"></path>
                    <path d="M12.6868089,1.87436325 C18.7156146,-0.0573873934 26.4707582,3.92314466 30.6312929,7.52569411 C34.7918275,11.1282436 38.7569986,15.6822536 39.8859372,21.781161 C41.0148758,27.8800683 38.3999107,34.7906698 35.6216123,39.2256138 C32.8433138,43.6605578 28.0394154,48.9492895 22.2993252,46.5741848 C18.342136,44.9367996 18.1782664,41.4933076 15.9537563,38.709046 C9.65934076,30.8307721 5.71626755,36.4037384 2.58683506,30.370603 C0.66584271,26.6671817 3.51539605,23.4862012 4.4234242,20.9679793 C5.27488789,18.6066268 5.50424107,15.996661 5.5745848,12.5246095 C5.71762541,5.46435915 9.27515708,2.96752515 12.6868089,1.87436325 Z" id="Path" fill="#000000"></path>
                </g>
            </g>
        </g>
    </g>
</svg>