<svg id="Layer_1" data-name="Layer 1" xmlns="http://www.w3.org/2000/svg" viewBox="0 0 448 512"><defs><style>.pol{fill:#ffffff;}</style></defs><title>image</title><path class="pol" d="M400,32H48A48,48,0,0,0,0,80V432a48,48,0,0,0,48,48H400a48,48,0,0,0,48-48V80A48,48,0,0,0,400,32Zm0,394a6,6,0,0,1-6,6H54a6,6,0,0,1-6-6V372.1H400Zm0-141.9-96.27-96.26a13.18,13.18,0,0,0-18.66,0L153.6,319.3l-43.47-43.46a13.18,13.18,0,0,0-18.66,0L48,319.3V86a6,6,0,0,1,6-6H394a6,6,0,0,1,6,6Z"/><circle class="pol" cx="119" cy="195" r="40"/></svg>
