<svg id="Layer_1" data-name="Layer 1" xmlns="http://www.w3.org/2000/svg" viewBox="0 0 448 512"><defs><style>.cls-1{fill:none;}.pol{fill:#ffffff;}</style></defs><title>shape</title>
<path class="cls-1"
  d="M280.77,177.54c1.71,0,3.4,0,5.1.09V108.39a4.06,4.06,0,0,0-4.05-4H52.55a4.06,4.06,0,0,0-4,4V337.66a4.05,4.05,0,0,0,4,4h61A167.2,167.2,0,0,1,280.77,177.54Z"/>
<path class="pol" d="M334.23,186.27V88.34A32.36,32.36,0,0,0,301.87,56H32.51A32.37,32.37,0,0,0,.14,88.34V357.7a32.38,32.38,0,0,0,32.37,32.37h87.24a167.25,167.25,0,1,0,214.48-203.8ZM48.51,337.66V108.39a4.06,4.06,0,0,1,4-4H281.82a4.06,4.06,0,0,1,4.05,4v69.24c-1.7-.06-3.39-.09-5.1-.09A167.2,167.2,0,0,0,113.58,341.7h-61A4.05,4.05,0,0,1,48.51,337.66ZM280.77,464.15A119.38,119.38,0,1,1,400.15,344.77,119.35,119.35,0,0,1,280.77,464.15Z"/></svg>
