<svg xmlns="http://www.w3.org/2000/svg" viewBox="0 0 171.84 171.73"><defs><style>.cls-1,.cls-2{fill:none;stroke-miterlimit:10;}.cls-1{stroke:#070707;stroke-width:5px;}.cls-2{stroke:#000;stroke-width:4px;}</style></defs><title>Ресурс 18</title><g id="Слой_2" data-name="Слой 2"><g id="Layer_1" data-name="Layer 1"><path class="cls-1" d="M169.34,81.06c-.28,8.37-3.78,15.19-9.37,21.54a20.65,20.65,0,0,0-5,11.9c-.63,17.8-12.4,30.21-30.06,30.16a16.31,16.31,0,0,0-12.7,5.23c-12.55,12.79-29.85,12.39-43.07,0A19.82,19.82,0,0,0,57.22,145c-17.9-.55-29.93-12.67-30.51-30.72a19.88,19.88,0,0,0-5-11.87c-12.29-13.16-12.23-30.1.12-43.28a20,20,0,0,0,5-11.91c.69-18.16,12.43-29.81,30.68-30.48a20,20,0,0,0,11.85-5.11C82.42-.62,99.36-.54,112.57,11.81a19.9,19.9,0,0,0,11.93,4.91c18,.61,29.94,12.65,30.53,30.71.13,4.05,2.34,8.75,5.06,11.86C165.66,65.65,169.12,72.5,169.34,81.06Z"/><path class="cls-2" d="M31.19,155.86A14.61,14.61,0,0,1,16,169.72a14.78,14.78,0,0,1-14-15.1,14.61,14.61,0,0,1,15.6-14.05A14.25,14.25,0,0,1,31.19,155.86Z"/></g></g></svg>