<svg xmlns="http://www.w3.org/2000/svg" viewBox="0 0 182.76 189.55"><title>Ресурс 20</title><g id="Слой_2" data-name="Слой 2"><g id="Layer_1" data-name="Layer 1"><path d="M88.22,134.53c-9.57-1.49-19.29-2.33-28.66-4.6-16.68-4-31.57-11.8-43.41-24.54C2,90.13-3.56,72.36,2.32,52,7.23,35,18.82,23.22,33.69,14.47,53.91,2.57,76-1.56,99.11.51,119.81,2.37,138.9,9,154.93,22.76,168,34,176.59,47.87,177,65.67c.37,18.74-8.1,33.44-21.87,45.43a8,8,0,0,0-3.07,6.12c-1.47,20.51-23.69,32.81-40.9,21.6-7.2-4.69-13.71-6.13-21.54-5.2a10.38,10.38,0,0,1-1.21,0ZM24.68,28.79C10.49,41.44,3.14,57.11,7.14,76.44c3,14.59,12,25.52,23.92,33.89C51.6,124.75,74.71,129.48,99.42,127c4.14-.41,7.18-.12,10.28,3.37a19.48,19.48,0,0,0,22.95,4.89c8.38-3.71,13.13-10.22,13.14-19.54a9.66,9.66,0,0,1,3.9-8.24C159,99.8,166.42,90.61,169.4,78.62c4.76-19.2-1.69-35.13-15.4-48.37C141.11,17.78,125.29,10.87,107.71,8c-6.23-1-12.56-1.44-18.85-2.14C64.87,6.51,42.89,12.56,24.68,28.79Z"/><path d="M131.94,161.91a14.32,14.32,0,0,1,14.84-14.36c7.69.28,13.56,6.81,13.35,14.87s-6.2,13.66-14.55,13.45A13.56,13.56,0,0,1,131.94,161.91Zm14.21-8.28c-4.21-.07-8.29,4-8.26,8.29a8.54,8.54,0,0,0,8,8.13,8.43,8.43,0,0,0,8.4-8.08A8.32,8.32,0,0,0,146.15,153.63Z"/><path d="M172.93,170.17a9.72,9.72,0,0,1,9.83,9.71,9.66,9.66,0,0,1-19.32.13C163.38,174.31,167.41,170.13,172.93,170.17Zm-3.19,9.49c.12,1.35,2,2.54,3.15,3.8,1.25-1.17,3.28-2.22,3.5-3.56s-1.6-2.74-3.22-5.21C171.45,177,169.63,178.44,169.74,179.66Z"/></g></g></svg>