<svg xmlns="http://www.w3.org/2000/svg" viewBox="0 0 214.81 193.98"><title>Ресурс 22</title><g id="Слой_2" data-name="Слой 2"><g id="Layer_1" data-name="Layer 1"><path d="M117,168c-5,4.42-9.84,9-14.85,13.36-2.28,2-3.81,1.76-4.94-1a95.2,95.2,0,0,1-3.12-9.93c-1.11-3.81-1.81-7.76-3.27-11.42s-4-4.62-7.47-2.89c-4.4,2.21-8.57,4.89-12.79,7.44-3.74,2.25-7.35,4.75-11.18,6.84-2.36,1.29-3.63.56-4.32-2a31.29,31.29,0,0,1-1-5c-.41-4-.58-7.94-1-11.89-.76-6.53-3.13-9.24-9.6-9.93-7.09-.76-14.25-1-21.38-1.33-3.71-.19-4.86-1.17-3.79-4.78a76.27,76.27,0,0,1,4.9-12.08,103,103,0,0,1,5.69-9.09c-3.53-2.38-7-4.43-10.08-6.86A201.94,201.94,0,0,1,2.67,94.09c-4-3.87-3.35-8.7,1-12.25a15.19,15.19,0,0,1,4.84-2.68c3.85-1.24,7.85-2,11.7-3.24C25.6,74.17,28,70.19,27,64.61a73.17,73.17,0,0,0-2.57-8.85C23.2,51.82,21.62,48,20.68,44c-1-4.29-1-8.69,2.75-11.94s8-2.58,12-.9c5.51,2.33,10.84,5.11,16.2,7.79,2.58,1.29,5,2.79,7.62,4.23,4.23-6,6.23-12.46,7.52-19.18,1.36-7.09,2.47-14.23,3.82-21.32C71,.2,72.13-.58,74.34.43c3.13,1.43,6.53,2.88,8.88,5.25,4.1,4.11,7.56,8.87,11.16,13.47,2.95,3.77,5.55,7.82,9.75,10.43a6.06,6.06,0,0,0,6.67.24,17.82,17.82,0,0,0,4.11-3c3.33-3.55,6.5-7.26,9.71-10.92,3.46-3.94,7.16-7.54,12.31-9.21,1.88-.61,3.16-.08,3.74,1.9.69,2.33,1.41,4.66,2.15,7,2.25,7.1,4.27,14.29,6.83,21.27,2.34,6.38,7.22,9.66,14.15,9.34,4.29-.2,8.58-.63,12.86-1,4.95-.38,9.92-.79,14.71.93,5.84,2.1,8.36,6.54,6.72,12.45a59.73,59.73,0,0,1-3.9,9.4c-1.84,3.88-4.14,7.55-5.77,11.51a12.35,12.35,0,0,0,2.38,13.62,43.9,43.9,0,0,0,6.75,5.91c5,3.7,10.27,7.12,15.29,10.84,2.77,2.06,2.56,3.64-.42,5.3-4.47,2.49-9,4.84-13.44,7.38s-8.64,4.86-12.65,7.71c-3.84,2.73-4.21,5.4-1.85,9.49,2,3.51,4.32,6.87,6.43,10.33,1.54,2.53.71,4.34-2.27,4.49s-6.26.37-9.18-.34c-6.6-1.6-13.08-3.73-19.59-5.68-2-.61-4.05-1.35-6.08-2l-.61.57c2.48,4.61,4.81,9.31,7.47,13.82,4.91,8.31,10.07,16.48,15,24.79a14.77,14.77,0,0,1,1.72,5.45,3.52,3.52,0,0,1-1.49,2.68c-.47.32-1.78-.25-2.54-.71-5-3.08-9.91-6.48-15.09-9.32-11.77-6.46-24.55-11.25-34.66-21.2C121.27,164.51,119.05,166.15,117,168ZM127.84,19.61c-3.79,3.9-7.16,8.24-11.22,11.82-6.51,5.73-12.43,5.59-18.47-.61-4-4.1-7.13-9-10.76-13.49-2.55-3.14-5.21-6.21-8-9.13C78.25,7,76.63,6.31,74.77,5.07L72.15,20.56c-1.5,8.85-3.45,17.53-8.75,25.06-2.08,3-2.52,3.29-5.73,1.71-5.6-2.75-11-5.94-16.62-8.62a47.81,47.81,0,0,0-10.68-3.82c-3.67-.76-5.76,1.36-5.47,5.16a37.92,37.92,0,0,0,1.7,7.8c1.47,5,3.48,9.81,4.63,14.85,2.06,9-1.5,15-10.28,17.84-3.47,1.13-7,1.9-10.54,2.94a10.18,10.18,0,0,0-3,1.49C4.53,87,4,89,6.54,91.35c4.42,4.14,9.19,7.93,14,11.61,3.86,3,8,5.57,12.05,8.26,1.89,1.25,2.12,2.76,1,4.56-2.34,3.8-4.86,7.5-7,11.39-1.44,2.56-2.44,5.38-3.7,8.23,6.52.43,12.43.8,18.34,1.23a31.85,31.85,0,0,1,4.1.58c8.32,1.7,11.93,6.07,12.72,15.42.35,4.2.61,8.41.95,13.15,1.82-1.09,3.29-1.89,4.67-2.81,4.66-3.1,9.18-6.44,14-9.33,9.32-5.62,15.67-3.19,19,7.22,1.35,4.24,2.24,8.63,3.34,13,.21.84.46,1.67.81,2.93,2.45-2.2,4.62-4.24,6.89-6.16q7.33-6.21,14.74-12.31c1.29-1.07,2.63-1.19,3.89.14,6.77,7.17,15.4,11.56,24,16,6.34,3.26,12.66,6.56,19.36,10-1-1.64-1.77-3.05-2.6-4.45-5.37-9.07-10.89-18.06-16-27.27a20.78,20.78,0,0,1-2.14-8.34c-.24-3,1.29-3.9,4.19-2.94,7.16,2.37,14.27,4.91,21.48,7.11,3.43,1,7.05,1.47,10.59,2.17l.33-.7-1.64-2.6c-1.08-1.72-2.23-3.4-3.22-5.16-3.64-6.47-2.6-11.82,3.54-16.06,4.06-2.81,8.46-5.12,12.75-7.59,3.71-2.14,7.48-4.18,11.61-6.48-3.65-2.43-7.13-4.5-10.32-6.94-3.84-2.94-7.9-5.81-11-9.42-4.74-5.45-5.51-12-2.66-18.73,1.65-3.86,4-7.44,5.8-11.23a54.7,54.7,0,0,0,3.44-8.27c1.07-3.6-.4-6.47-4-7a91.72,91.72,0,0,0-13.77-.35c-4.13.08-8.26.66-12.39.73-8.37.14-14.45-3.81-17.63-11.41-2.56-6.1-4.36-12.53-6.4-18.84-.92-2.85-1.63-5.76-2.43-8.64l-.81-.46C133.4,14.25,130.53,16.85,127.84,19.61Z"/></g></g></svg>