<svg xmlns="http://www.w3.org/2000/svg" viewBox="0 0 214.81 193.98"><title>Ресурс 23</title><g id="Слой_2" data-name="Слой 2"><g id="Layer_1" data-name="Layer 1"><path d="M91.22,162.65c-10.11,10-22.88,14.74-34.66,21.2-5.17,2.84-10,6.24-15.09,9.32-.76.46-2.07,1-2.54.71a3.52,3.52,0,0,1-1.49-2.68,14.77,14.77,0,0,1,1.72-5.45c4.91-8.31,10.07-16.48,15-24.79,2.66-4.51,5-9.21,7.47-13.82l-.61-.57c-2,.68-4,1.41-6.08,2-6.51,2-13,4.08-19.59,5.68-2.92.71-6.13.5-9.18.34s-3.81-2-2.27-4.49c2.11-3.47,4.4-6.82,6.43-10.33,2.36-4.09,2-6.76-1.85-9.49-4-2.85-8.37-5.25-12.65-7.71s-9-4.9-13.44-7.38c-3-1.66-3.19-3.24-.42-5.3,5-3.72,10.26-7.14,15.29-10.84A43.9,43.9,0,0,0,24,93.14a12.35,12.35,0,0,0,2.38-13.62c-1.64-4-3.93-7.63-5.77-11.51a59.73,59.73,0,0,1-3.9-9.4c-1.64-5.91.88-10.36,6.72-12.45,4.79-1.72,9.76-1.31,14.71-.93,4.29.33,8.57.76,12.86,1,6.93.32,11.81-3,14.15-9.34,2.57-7,4.59-14.17,6.83-21.27.73-2.32,1.46-4.64,2.15-7,.58-2,1.86-2.51,3.74-1.9C83,8.37,86.73,12,90.19,15.91c3.22,3.66,6.38,7.37,9.71,10.92a17.82,17.82,0,0,0,4.11,3,6.06,6.06,0,0,0,6.67-.24c4.19-2.61,6.8-6.66,9.75-10.43,3.59-4.6,7.06-9.35,11.16-13.47,2.36-2.37,5.76-3.82,8.88-5.25,2.21-1,3.34-.23,3.8,2.21,1.34,7.09,2.46,14.23,3.82,21.32,1.29,6.72,3.28,13.21,7.52,19.18,2.57-1.43,5-2.94,7.62-4.23,5.36-2.68,10.68-5.46,16.2-7.79,4-1.68,8.27-2.3,12,.9s3.76,7.64,2.75,11.94c-.94,4-2.53,7.86-3.77,11.8a73.17,73.17,0,0,0-2.57,8.85c-1,5.58,1.42,9.56,6.8,11.3,3.85,1.24,7.85,2,11.7,3.24a15.19,15.19,0,0,1,4.84,2.68c4.35,3.56,5,8.39,1,12.25A201.94,201.94,0,0,1,196,107.4c-3.13,2.43-6.55,4.48-10.08,6.86a103,103,0,0,1,5.69,9.09,76.27,76.27,0,0,1,4.9,12.08c1.07,3.61-.08,4.6-3.79,4.78-7.13.36-14.29.58-21.38,1.33-6.46.69-8.83,3.4-9.6,9.93-.46,4-.64,7.93-1,11.89a31.29,31.29,0,0,1-1,5c-.7,2.56-2,3.29-4.32,2-3.83-2.09-7.44-4.58-11.18-6.84-4.23-2.54-8.39-5.23-12.79-7.44-3.44-1.73-6-.75-7.47,2.89s-2.16,7.62-3.27,11.42a95.2,95.2,0,0,1-3.12,9.93c-1.13,2.73-2.66,3-4.94,1-5-4.38-9.87-8.94-14.85-13.36C95.75,166.15,93.54,164.51,91.22,162.65ZM78.62,11.58,77.8,12c-.8,2.88-1.51,5.8-2.43,8.64-2,6.31-3.85,12.73-6.4,18.84-3.19,7.6-9.26,11.55-17.63,11.41-4.13-.07-8.26-.65-12.39-.73a91.72,91.72,0,0,0-13.77.35c-3.64.49-5.12,3.36-4,7a54.7,54.7,0,0,0,3.44,8.27c1.85,3.79,4.15,7.37,5.8,11.23,2.85,6.68,2.08,13.28-2.66,18.73-3.15,3.61-7.2,6.48-11,9.42-3.19,2.44-6.67,4.51-10.32,6.94,4.12,2.3,7.89,4.34,11.61,6.48,4.29,2.47,8.69,4.79,12.75,7.59,6.14,4.24,7.18,9.59,3.54,16.06-1,1.77-2.14,3.44-3.22,5.16L29.38,150l.33.7c3.54-.7,7.16-1.12,10.59-2.17,7.21-2.2,14.32-4.75,21.48-7.11,2.91-1,4.43-.1,4.19,2.94a20.78,20.78,0,0,1-2.14,8.34c-5.13,9.21-10.65,18.2-16,27.27-.83,1.4-1.64,2.81-2.6,4.45,6.7-3.47,13-6.77,19.36-10,8.61-4.42,17.23-8.81,24-16,1.26-1.33,2.6-1.21,3.89-.14q7.4,6.12,14.74,12.31c2.27,1.92,4.44,4,6.89,6.16.35-1.26.6-2.09.81-2.93,1.1-4.32,2-8.71,3.34-13,3.31-10.41,9.66-12.85,19-7.22,4.79,2.89,9.3,6.23,14,9.33,1.38.92,2.85,1.72,4.67,2.81.34-4.74.59-8.95.95-13.15.79-9.35,4.4-13.72,12.72-15.42a31.85,31.85,0,0,1,4.1-.58c5.91-.42,11.82-.8,18.34-1.23-1.26-2.85-2.26-5.67-3.7-8.23-2.19-3.89-4.7-7.58-7-11.39-1.11-1.81-.88-3.31,1-4.56,4.06-2.69,8.19-5.31,12.05-8.26,4.82-3.68,9.58-7.47,14-11.61,2.52-2.36,2-4.33-.85-6.39a10.18,10.18,0,0,0-3-1.49c-3.5-1-7.08-1.81-10.54-2.94-8.78-2.85-12.34-8.81-10.28-17.84,1.15-5,3.15-9.88,4.63-14.85a37.92,37.92,0,0,0,1.7-7.8c.29-3.8-1.8-5.93-5.47-5.16a47.81,47.81,0,0,0-10.68,3.82c-5.63,2.69-11,5.87-16.62,8.62-3.21,1.58-3.65,1.26-5.73-1.71-5.29-7.53-7.25-16.21-8.75-25.06L140,5.07c-1.86,1.23-3.49,1.95-4.62,3.13-2.79,2.92-5.45,6-8,9.13-3.63,4.46-6.77,9.39-10.76,13.49-6,6.2-12,6.35-18.47.61C94.12,27.86,90.75,23.51,87,19.61,84.27,16.85,81.4,14.25,78.62,11.58Z"/></g></g></svg>