<svg xmlns="http://www.w3.org/2000/svg" viewBox="0 0 216.05 188.9"><defs><style>.cls-1{fill:none;stroke:#000;stroke-miterlimit:10;stroke-width:3px;}</style></defs><title>Ресурс 9</title><g id="Слой_2" data-name="Слой 2"><g id="Layer_1" data-name="Layer 1"><path class="cls-1" d="M214.55,74.7a32.56,32.56,0,0,0-29.3-32.4,47.72,47.72,0,0,0-59.1-28.1,55.48,55.48,0,0,0-90.8,41.9,43.38,43.38,0,0,0,15.7,81.1,31.38,31.38,0,0,0,29.1,19.7,28.15,28.15,0,0,0,6.5-.7,47.53,47.53,0,0,0,72.5-19.6,23,23,0,0,0,3.7.2,29.7,29.7,0,0,0,29.7-29.7,10.87,10.87,0,0,0-.1-1.8A32.26,32.26,0,0,0,214.55,74.7Z"/><circle class="cls-1" cx="41.68" cy="165.42" r="11.6" transform="translate(-104.76 77.92) rotate(-45)"/><circle class="cls-1" cx="9.7" cy="179.2" r="8.2" transform="translate(-40.92 7.03) rotate(-13.29)"/></g></g></svg>