<svg xmlns="http://www.w3.org/2000/svg" viewBox="0 0 216.03 188.91"><defs><style>.cls-1{fill:none;stroke:#000;stroke-miterlimit:10;stroke-width:3px;}</style></defs><title>Ресурс 10</title><g id="Слой_2" data-name="Слой 2"><g id="Layer_1" data-name="Layer 1"><path class="cls-1" d="M1.5,74.7A32.56,32.56,0,0,1,30.8,42.3,47.72,47.72,0,0,1,89.9,14.2a55.48,55.48,0,0,1,90.8,41.9A43.38,43.38,0,0,1,165,137.2a31.38,31.38,0,0,1-29.1,19.7,28.15,28.15,0,0,1-6.5-.7,47.53,47.53,0,0,1-72.5-19.6,23,23,0,0,1-3.7.2,29.7,29.7,0,0,1-29.7-29.7,10.87,10.87,0,0,1,.1-1.8A32.26,32.26,0,0,1,1.5,74.7Z"/><circle class="cls-1" cx="174.32" cy="165.42" r="11.6" transform="translate(-65.91 171.71) rotate(-45)"/><circle class="cls-1" cx="206.33" cy="179.2" r="8.2" transform="translate(-15.5 338.83) rotate(-76.71)"/></g></g></svg>