<svg xmlns="http://www.w3.org/2000/svg" viewBox="0 0 186.11 152.91"><defs><style>.cls-1{fill:none;stroke:#000;stroke-miterlimit:10;stroke-width:3px;}</style></defs><title>Ресурс 11</title><g id="Слой_2" data-name="Слой 2"><g id="Layer_1" data-name="Layer 1"><path class="cls-1" d="M96.27,28.13l20.4-20a1.08,1.08,0,0,1,1.8.2l4.9,26.6a1,1,0,0,0,1.3.5L160.57,9a1,1,0,0,1,1.3,1.4l-13.5,31.3a1,1,0,0,0,.5,1.4l35.1,6.1a1,1,0,0,1,.2,1.7L152.57,67a1.05,1.05,0,0,0,.3,1.8l25.2,17.7a1,1,0,0,1-.2,2l-31.1,8.2a1,1,0,0,0-.6,1.6l24.7,34.3a1.05,1.05,0,0,1-1.2,1.6l-43.3-16.5a1,1,0,0,0-1.4.9l-.8,19.7a1.07,1.07,0,0,1-1.7.8l-21.1-16.4a1,1,0,0,0-1.5.2l-16.7,23.9a1.05,1.05,0,0,1-1.9-.4l-4.2-27.8a1.07,1.07,0,0,0-1.5-.8l-63.4,33.4a1.18,1.18,0,0,1-1.5-1.8l33.1-40.3a1,1,0,0,0-.5-1.6l-28-7.5a1.05,1.05,0,0,1-.4-1.8l21.6-18.6a1,1,0,0,0-.3-1.7L2.17,66a1,1,0,0,1,0-1.9l39.5-12.6a1.15,1.15,0,0,0,.7-1.3l-11.3-39.6a1,1,0,0,1,1.5-1.2l29.7,18a1,1,0,0,0,1.5-.6l8.3-24.6a1,1,0,0,1,1.8-.3l20.6,26.4A1.27,1.27,0,0,0,96.27,28.13Z"/></g></g></svg>