<svg xmlns="http://www.w3.org/2000/svg" viewBox="0 0 186.11 152.91"><defs><style>.cls-1{fill:none;stroke:#000;stroke-miterlimit:10;stroke-width:3px;}</style></defs><title>Ресурс 12</title><g id="Слой_2" data-name="Слой 2"><g id="Layer_1" data-name="Layer 1"><path class="cls-1" d="M89.84,28.13l-20.4-20a1.08,1.08,0,0,0-1.8.2l-4.9,26.6a1,1,0,0,1-1.3.5L25.54,9a1,1,0,0,0-1.3,1.4l13.5,31.3a1,1,0,0,1-.5,1.4l-35.1,6.1a1,1,0,0,0-.2,1.7L33.54,67a1.05,1.05,0,0,1-.3,1.8L8,86.53a1,1,0,0,0,.2,2l31.1,8.2a1,1,0,0,1,.6,1.6l-24.7,34.3a1.05,1.05,0,0,0,1.2,1.6l43.3-16.5a1,1,0,0,1,1.4.9l.8,19.7a1.07,1.07,0,0,0,1.7.8l21.1-16.4a1,1,0,0,1,1.5.2l16.7,23.9a1.05,1.05,0,0,0,1.9-.4l4.2-27.8a1.07,1.07,0,0,1,1.5-.8l63.4,33.4a1.18,1.18,0,0,0,1.5-1.8l-33.1-40.3a1,1,0,0,1,.5-1.6l28-7.5a1.05,1.05,0,0,0,.4-1.8l-21.6-18.6a1,1,0,0,1,.3-1.7l34-11.9a1,1,0,0,0,0-1.9l-39.5-12.6a1.15,1.15,0,0,1-.7-1.3L155,10.63a1,1,0,0,0-1.5-1.2l-29.7,18a1,1,0,0,1-1.5-.6L114,2.23a1,1,0,0,0-1.8-.3l-20.6,26.4A1.27,1.27,0,0,1,89.84,28.13Z"/></g></g></svg>