<svg xmlns="http://www.w3.org/2000/svg" viewBox="0 0 186.11 158.91"><defs><style>.cls-1{fill:none;stroke:#000;stroke-miterlimit:10;stroke-width:3px;}</style></defs><title>Ресурс 13</title><g id="Слой_2" data-name="Слой 2"><g id="Layer_1" data-name="Layer 1"><path class="cls-1" d="M96.28,20.13l20.4-12a1.08,1.08,0,0,1,1.8.2l7.9,16.6a1,1,0,0,0,1.3.5L160.57,9a1,1,0,0,1,1.3,1.4l-5.5,28.3a1,1,0,0,0,.5,1.4l27.1,9.1a1,1,0,0,1,.2,1.7L165.57,67a1.05,1.05,0,0,0,.3,1.8l12.2,17.7a1,1,0,0,1-.2,2l-18.1,15.2a1,1,0,0,0-.6,1.6l11.7,27.3a1.05,1.05,0,0,1-1.2,1.6l-33.3-11.5a1,1,0,0,0-1.4.9l-10.8,14.7a1.07,1.07,0,0,1-1.7.8l-17.1-10.4a1,1,0,0,0-1.5.2l-20.7,17.9a1.05,1.05,0,0,1-1.9-.4l-13.2-21.8a1.07,1.07,0,0,0-1.5-.8l-51.4,33.4a1.18,1.18,0,0,1-1.5-1.8l24.1-38.3a1,1,0,0,0-.5-1.6l-22-15.5a1.05,1.05,0,0,1-.4-1.8l11.6-18.6a1,1,0,0,0-.3-1.7L2.17,66a1,1,0,0,1,0-1.9l25.5-18.6a1.15,1.15,0,0,0,.7-1.3l2.7-33.6a1,1,0,0,1,1.5-1.2l26.7,11a1,1,0,0,0,1.5-.6l11.3-17.6a1,1,0,0,1,1.8-.3l20.6,18.4A1.27,1.27,0,0,0,96.28,20.13Z"/></g></g></svg>