<svg xmlns="http://www.w3.org/2000/svg" viewBox="0 0 185.81 158.91"><defs><style>.cls-1{fill:none;stroke:#000;stroke-miterlimit:10;stroke-width:3px;}</style></defs><title>Ресурс 14</title><g id="Слой_2" data-name="Слой 2"><g id="Layer_1" data-name="Layer 1"><path class="cls-1" d="M89.84,20.13l-20.4-12a1.08,1.08,0,0,0-1.8.2l-7.9,16.6a1,1,0,0,1-1.3.5L25.54,9a1,1,0,0,0-1.3,1.4l5.5,28.3a1,1,0,0,1-.5,1.4l-27.1,9.1a1,1,0,0,0-.2,1.7L20.54,67a1.05,1.05,0,0,1-.3,1.8L8,86.53a1,1,0,0,0,.2,2l18.1,15.2a1,1,0,0,1,.6,1.6l-11.7,27.3a1.05,1.05,0,0,0,1.2,1.6l33.3-11.5a1,1,0,0,1,1.4.9l10.8,14.7a1.07,1.07,0,0,0,1.7.8l17.1-10.4a1,1,0,0,1,1.5.2l20.7,17.9a1.05,1.05,0,0,0,1.9-.4l13.2-21.8a1.07,1.07,0,0,1,1.5-.8l51.1,33.4a1.18,1.18,0,0,0,1.5-1.8L148,117.13a1,1,0,0,1,.5-1.6l22-15.5a1.05,1.05,0,0,0,.4-1.8l-11.6-18.6a1,1,0,0,1,.3-1.7l24-11.9a1,1,0,0,0,0-1.9l-25.5-18.6a1.15,1.15,0,0,1-.7-1.3l-2.7-33.6a1,1,0,0,0-1.5-1.2l-26.7,11a1,1,0,0,1-1.5-.6l-11.3-17.6a1,1,0,0,0-1.8-.3l-20.6,18.4A1,1,0,0,1,89.84,20.13Z"/></g></g></svg>