<svg xmlns="http://www.w3.org/2000/svg" viewBox="0 0 172.48 183.4"><title>Ресурс 16</title><g id="Слой_2" data-name="Слой 2"><g id="Layer_1" data-name="Layer 1"><path d="M172.46,59.61c0,12.66.06,25.32,0,38-.09,14.62-6.57,21.16-20.15,20.18q-67.89-4.93-135.77-10.05C4.71,106.8-.93,99.49.12,87.24,1.93,66.09,3.6,44.91,5.67,23.78c1.12-11.44,6.49-16.39,17.27-17Q85.83,3.43,148.74.11c18.29-1,23.73,4.51,23.72,23.68Q172.46,41.7,172.46,59.61Zm-11.53,0c0-13.14-.21-26.29.09-39.42.15-6.76-2.46-8.74-8.57-8.3-14.87,1.05-29.77,1.6-44.66,2.36q-42,2.15-83.91,4.29c-4.19.21-6.71,1.74-7.11,6.66Q14.24,56.59,11.38,88c-.49,5.48,1.51,7.84,6.77,8.08,9.47.43,18.92,1.35,28.38,2.05,35.36,2.62,70.73,5.16,106.08,7.93,6.19.48,8.57-1.78,8.4-8.44C160.7,84.94,160.93,72.27,160.93,59.61Z"/><path d="M137.36,160.65c-8.86-.08-16-7.64-15.89-16.89s7.24-16.66,16.15-16.61,16,7.67,16,16.88S146.16,160.73,137.36,160.65Zm8.48-15.9c0-5.85-4-10.27-8.62-9.78-4.86.52-7.87,3.42-8,8.87-.11,5.11,3.88,9.45,8.56,9C142.65,152.29,145.53,149.3,145.84,144.75Z"/><path d="M160.09,160.35a11.31,11.31,0,0,1,11,11.78c-.18,6.06-5.21,11.23-10.94,11.27-6.08,0-11-5.38-10.89-11.89C149.43,165.21,154.12,160.37,160.09,160.35Z"/></g></g></svg>