<svg xmlns="http://www.w3.org/2000/svg" viewBox="0 0 172.48 183.4"><title>Ресурс 17</title><g id="Слой_2" data-name="Слой 2"><g id="Layer_1" data-name="Layer 1"><path d="M0,23.79C0,4.62,5.45-.86,23.74.11q62.9,3.31,125.81,6.71c10.78.58,16.15,5.52,17.27,17,2.07,21.13,3.73,42.3,5.54,63.46,1,12.25-4.58,19.56-16.4,20.46Q88.08,112.9,20.18,117.76C6.61,118.75.13,112.2,0,97.58,0,84.93,0,72.27,0,59.61Q0,41.7,0,23.79Zm11.44,73.8c-.17,6.66,2.21,8.92,8.4,8.44,35.35-2.76,70.72-5.3,106.08-7.93,9.46-.7,18.91-1.62,28.38-2.05,5.26-.24,7.27-2.61,6.77-8.08q-2.82-31.38-5.39-62.78c-.4-4.92-2.92-6.45-7.11-6.66q-42-2.08-83.91-4.29C49.8,13.48,34.9,12.94,20,11.89c-6.11-.43-8.72,1.55-8.57,8.3.3,13.13.09,26.28.09,39.42C11.55,72.27,11.79,84.94,11.46,97.59Z"/><path d="M18.92,144c-.08-9.21,7.11-16.83,16-16.88S50.94,134.46,51,143.76s-7,16.82-15.89,16.89S19,153.22,18.92,144Zm15.78,8.76c4.68.49,8.67-3.84,8.56-9-.12-5.45-3.13-8.35-8-8.87-4.62-.49-8.64,3.94-8.62,9.78C27,149.3,29.83,152.29,34.7,152.79Z"/><path d="M12.39,160.35a11.31,11.31,0,0,0-11,11.78c.18,6.06,5.21,11.23,10.94,11.27,6.08,0,11-5.38,10.89-11.89C23.06,165.21,18.36,160.37,12.39,160.35Z"/></g></g></svg>